<?xml version="1.0" encoding="iso-8859-1"?>
<!-- Generator: Adobe Illustrator 21.0.0, SVG Export Plug-In . SVG Version: 6.00 Build 0)  -->
<svg version="1.1" id="Capa_1" xmlns="http://www.w3.org/2000/svg" xmlns:xlink="http://www.w3.org/1999/xlink" x="0px" y="0px"
	 viewBox="0 0 512 512" style="enable-background:new 0 0 512 512;" xml:space="preserve">
<g>
	<path style="fill:#909BA6;" d="M473.06,121.349l-81.194-28.717c-0.881-0.311-1.563-1.002-1.873-1.873l-12.38-34.998L361.266,9.555
		c-0.962-2.724-4.818-2.724-5.79,0l-28.727,81.204c-0.301,0.871-0.992,1.563-1.863,1.873l-81.204,28.717
		c-2.724,0.972-2.724,4.828,0,5.79l81.204,28.727c0.871,0.311,1.563,1.002,1.863,1.873l28.727,81.194
		c0.972,2.734,4.828,2.734,5.79,0l16.327-46.146l12.4-35.048c0.31-0.871,0.992-1.563,1.873-1.873l81.194-28.727
		C475.794,126.177,475.794,122.321,473.06,121.349z M359.833,143.746c-0.481,0.04-0.972,0.06-1.462,0.06
		c-10.798,0-19.552-8.754-19.552-19.562c0-10.798,8.754-19.552,19.552-19.552c0.501,0,0.992,0.02,1.472,0.06
		c10.117,0.751,18.09,9.195,18.09,19.492C377.933,134.561,369.95,143.005,359.833,143.746z"/>
	<path style="fill:#909BA6;" d="M308.148,268.121l-81.204-28.717c-0.871-0.311-1.553-1.002-1.863-1.873l-12.02-33.986
		l-16.708-47.218c-0.962-2.724-4.828-2.724-5.79,0l-28.727,81.204c-0.311,0.871-0.992,1.563-1.863,1.873l-81.204,28.717
		c-2.724,0.972-2.724,4.828,0,5.79l81.204,28.727c0.871,0.311,1.553,1.002,1.863,1.873l28.727,81.194
		c0.962,2.735,4.828,2.735,5.79,0l15.145-42.82l13.582-38.373c0.311-0.871,0.992-1.563,1.863-1.873l81.204-28.727
		C310.873,272.949,310.873,269.092,308.148,268.121z M193.459,290.578h-0.12c-10.748-0.07-19.432-8.794-19.432-19.562
		c0-10.798,8.754-19.552,19.552-19.552c0.301,0,0.601,0.01,0.891,0.03c10.387,0.461,18.661,9.025,18.661,19.522
		C213.012,281.823,204.257,290.578,193.459,290.578z"/>
	<path style="fill:#909BA6;" d="M501.466,384.863l-81.204-28.727c-0.871-0.311-1.553-1.002-1.863-1.873l-11.84-33.475
		l-16.888-47.719c-0.962-2.735-4.828-2.735-5.79,0l-28.727,81.194c-0.311,0.871-0.992,1.563-1.873,1.873l-81.194,28.727
		c-2.724,0.962-2.724,4.818,0,5.79l81.194,28.717c0.881,0.31,1.563,1.002,1.873,1.873l28.727,81.204c0.962,2.724,4.828,2.724,5.79,0
		l15.776-44.583l12.951-36.62c0.311-0.871,0.992-1.563,1.863-1.873l81.204-28.717C504.191,389.681,504.191,385.824,501.466,384.863z
		 M387.869,407.27c-0.361,0.03-0.721,0.04-1.092,0.04c-10.798,0-19.552-8.754-19.552-19.552c0-10.808,8.754-19.562,19.552-19.562
		c0.611,0,1.222,0.03,1.823,0.09c9.946,0.911,17.729,9.275,17.729,19.472C406.33,398.185,398.166,406.709,387.869,407.27z"/>
</g>
<g>
	<path style="fill:#A2ABB8;" d="M473.06,127.138l-81.194,28.727c-0.881,0.311-1.563,1.002-1.873,1.873l-12.4,35.048
		c-8.965-14.694-15.135-31.292-17.759-49.041c10.117-0.741,18.1-9.185,18.1-19.502c0-10.297-7.973-18.741-18.09-19.492
		c2.634-17.729,8.794-34.306,17.769-48.991l12.38,34.998c0.31,0.871,0.992,1.563,1.873,1.873l81.194,28.717
		C475.794,122.321,475.794,126.177,473.06,127.138z"/>
	<path style="fill:#A2ABB8;" d="M501.466,390.652l-81.204,28.717c-0.871,0.31-1.553,1.002-1.863,1.873l-12.951,36.62
		c-9.095-15.155-15.215-32.283-17.579-50.593c10.297-0.561,18.46-9.085,18.46-19.512c0-10.197-7.783-18.561-17.729-19.472
		c2.885-17.188,9.095-33.255,17.96-47.498l11.84,33.475c0.311,0.871,0.992,1.563,1.863,1.873l81.204,28.727
		C504.191,385.824,504.191,389.681,501.466,390.652z"/>
	<path style="fill:#A2ABB8;" d="M308.148,273.91l-81.204,28.727c-0.871,0.311-1.553,1.002-1.863,1.873l-13.582,38.373
		c-9.496-15.606-15.846-33.335-18.16-52.306h0.12c10.798,0,19.552-8.754,19.552-19.562c0-10.497-8.274-19.061-18.661-19.522
		c3.065-17.399,9.536-33.615,18.711-47.949l12.02,33.986c0.311,0.871,0.992,1.563,1.863,1.873l81.204,28.717
		C310.873,269.092,310.873,272.949,308.148,273.91z"/>
</g>
<path d="M234.125,124.247c0,4.545,2.769,8.461,7.054,9.977l79.199,28.017l28.017,79.198c1.516,4.285,5.432,7.054,9.976,7.054
	c4.545,0,8.462-2.769,9.977-7.054l28.017-79.199l79.199-28.017c4.285-1.517,7.054-5.432,7.054-9.977s-2.769-8.461-7.054-9.977
	l-79.199-28.017L368.349,7.053c-3.335-9.431-16.638-9.376-19.954-0.001l-28.017,79.199l-79.199,28.017
	C236.894,115.785,234.125,119.701,234.125,124.247z M327.387,99.709c3.027-1.071,5.378-3.422,6.449-6.449v0.001L358.372,23.9
	l24.537,69.36c1.071,3.027,3.422,5.378,6.448,6.449l69.362,24.537l-69.361,24.537c-3.027,1.071-5.378,3.422-6.449,6.448
	l-24.536,69.361l-24.537-69.36c-1.071-3.027-3.422-5.378-6.448-6.449l-69.362-24.537L327.387,99.709z"/>
<path d="M358.373,151.315c14.926,0,27.068-12.143,27.068-27.069s-12.143-27.068-27.068-27.068
	c-14.925,0-27.069,12.143-27.069,27.068S343.447,151.315,358.373,151.315z M358.373,112.203c6.641,0,12.043,5.403,12.043,12.043
	c0,6.64-5.403,12.044-12.043,12.044c-6.64,0-12.044-5.403-12.044-12.044C346.329,117.605,351.732,112.203,358.373,112.203z"/>
<path d="M203.437,388.213l28.017-79.199l79.198-28.017c9.431-3.335,9.376-16.638,0.001-19.954l-79.199-28.017l-28.017-79.199
	c-1.517-4.285-5.432-7.054-9.977-7.054c-4.545,0-8.461,2.769-9.977,7.054l-28.017,79.199l-79.198,28.017
	c-4.285,1.516-7.054,5.432-7.054,9.976c0,4.545,2.769,8.462,7.054,9.977l79.199,28.017l28.017,79.199
	C186.811,397.622,200.112,397.61,203.437,388.213z M162.475,295.556l-69.361-24.536l69.36-24.537
	c3.027-1.071,5.378-3.422,6.449-6.449v0.001l24.537-69.362l24.537,69.361c1.071,3.027,3.422,5.378,6.448,6.449l69.361,24.536
	l-69.36,24.537c-3.027,1.071-5.378,3.422-6.449,6.448l-24.537,69.362l-24.537-69.361
	C167.852,298.976,165.501,296.627,162.475,295.556z"/>
<path d="M220.528,271.019c0-14.926-12.143-27.069-27.069-27.069c-14.926,0-27.069,12.143-27.069,27.069s12.143,27.068,27.069,27.068
	C208.385,298.087,220.528,285.945,220.528,271.019z M181.416,271.019c0-6.641,5.403-12.044,12.044-12.044
	c6.641,0,12.044,5.403,12.044,12.044s-5.403,12.043-12.044,12.043C186.818,283.062,181.416,277.66,181.416,271.019z"/>
<path d="M503.972,377.777l-79.2-28.017l-28.017-79.199c-3.322-9.392-16.624-9.41-19.954,0l-28.017,79.199l-79.199,28.018
	c-9.392,3.322-9.41,16.624,0,19.954l79.199,28.017l28.018,79.199c3.322,9.392,16.624,9.41,19.954,0l28.017-79.199l79.2-28.018
	C513.364,394.409,513.383,381.107,503.972,377.777z M417.764,412.291c-3.026,1.07-5.377,3.42-6.45,6.449l-24.536,69.362
	l-24.537-69.361c-1.071-3.027-3.422-5.378-6.448-6.449l-69.362-24.537l69.361-24.537c3.027-1.071,5.378-3.422,6.449-6.449v0.001
	l24.537-69.362l24.537,69.364c1.072,3.026,3.423,5.376,6.448,6.445l69.362,24.537L417.764,412.291z"/>
<path d="M386.778,360.686c-14.926,0-27.069,12.143-27.069,27.069s12.143,27.068,27.069,27.068s27.068-12.143,27.068-27.068
	S401.703,360.686,386.778,360.686z M386.778,399.797c-6.641,0-12.044-5.403-12.044-12.043s5.403-12.044,12.044-12.044
	s12.043,5.403,12.043,12.044S393.419,399.797,386.778,399.797z"/>
<path d="M53.062,271.019c0-4.149-3.364-7.512-7.512-7.512H8.489c-4.149,0-7.512,3.364-7.512,7.512s3.364,7.512,7.512,7.512H45.55
	C49.699,278.532,53.062,275.168,53.062,271.019z"/>
<path d="M76.724,376.299c-4.149,0-7.512,3.364-7.512,7.512s3.364,7.512,7.512,7.512h40.066c4.149,0,7.512-3.364,7.512-7.512
	s-3.364-7.512-7.512-7.512H76.724z"/>
<path d="M146.84,376.299c-4.149,0-7.512,3.364-7.512,7.512s3.364,7.512,7.512,7.512h8.557c4.149,0,7.512-3.364,7.512-7.512
	s-3.364-7.512-7.512-7.512H146.84z"/>
<path d="M136.49,208.255c0-4.149-3.364-7.512-7.512-7.512H24.471c-4.149,0-7.512,3.364-7.512,7.512s3.364,7.512,7.512,7.512h104.505
	C133.126,215.767,136.49,212.404,136.49,208.255z"/>
<path d="M95.255,78.208h147.242c4.149,0,7.512-3.364,7.512-7.512c0-4.149-3.364-7.512-7.512-7.512H95.255
	c-4.149,0-7.512,3.364-7.512,7.512C87.742,74.844,91.106,78.208,95.255,78.208z"/>
<path d="M272.547,78.208H299.3c4.149,0,7.512-3.364,7.512-7.512c0-4.149-3.364-7.512-7.512-7.512h-26.753
	c-4.149,0-7.512,3.364-7.512,7.512C265.034,74.844,268.398,78.208,272.547,78.208z"/>
<path d="M8.489,128.29h204.045c4.149,0,7.512-3.364,7.512-7.512s-3.364-7.512-7.512-7.512H8.489c-4.149,0-7.512,3.364-7.512,7.512
	S4.34,128.29,8.489,128.29z"/>
<path d="M339.7,469.185H192.458c-4.149,0-7.512,3.364-7.512,7.512c0,4.149,3.364,7.512,7.512,7.512H339.7
	c4.149,0,7.512-3.364,7.512-7.512C347.212,472.548,343.85,469.185,339.7,469.185z"/>
<path d="M162.408,469.185h-26.754c-4.149,0-7.512,3.364-7.512,7.512c0,4.149,3.364,7.512,7.512,7.512h26.754
	c4.149,0,7.512-3.364,7.512-7.512C169.921,472.548,166.557,469.185,162.408,469.185z"/>
<path d="M282.273,430.621c0-4.149-3.364-7.512-7.512-7.512H21.009c-4.149,0-7.512,3.364-7.512,7.512
	c0,4.149,3.364,7.512,7.512,7.512h253.752C278.91,438.133,282.273,434.77,282.273,430.621z"/>
<g>
</g>
<g>
</g>
<g>
</g>
<g>
</g>
<g>
</g>
<g>
</g>
<g>
</g>
<g>
</g>
<g>
</g>
<g>
</g>
<g>
</g>
<g>
</g>
<g>
</g>
<g>
</g>
<g>
</g>
</svg>
